<svg width="886" height="410" viewBox="0 0 886 410" fill="none" xmlns="http://www.w3.org/2000/svg">
<path d="M97.4309 353.841L95.8414 351.988C109.29 340.477 126.028 326.151 132.293 307.216C138.469 288.551 133.824 266.016 120.169 248.406C108.549 233.419 90.6055 221.618 68.2792 214.277C63.8754 212.829 59.3031 211.543 54.8812 210.299C44.1931 207.292 33.1409 204.182 23.353 198.5C9.87216 190.673 -2.37257 175.299 0.661694 158.596C1.69176 153.252 4.20157 148.303 7.90616 144.312C11.6107 140.32 16.3617 137.446 21.6195 136.016L22.2694 138.368C17.4524 139.678 13.0994 142.31 9.70446 145.965C6.30948 149.621 4.00843 154.154 3.06245 159.049C0.242865 174.57 11.8378 188.991 24.5811 196.391C34.1012 201.918 45.0019 204.984 55.5436 207.95C59.9905 209.201 64.5892 210.495 69.0435 211.959C91.8343 219.453 110.181 231.539 122.101 246.912C136.246 265.155 141.041 288.556 134.613 307.982C128.135 327.562 111.11 342.133 97.4309 353.841Z" fill="#9D9D9D"/>
<path d="M39.4766 145.321C51.0171 142.83 59.3908 136.273 58.1797 130.675C56.9687 125.077 46.6314 122.557 35.0908 125.047C23.5503 127.538 15.1766 134.095 16.3877 139.693C17.5987 145.291 27.936 147.811 39.4766 145.321Z" fill="#9D9D9D"/>
<path d="M70.6401 208.496C82.1806 206.005 90.5543 199.448 89.3432 193.85C88.1321 188.252 77.7949 185.732 66.2543 188.222C54.7138 190.713 46.3401 197.27 47.5511 202.868C48.7622 208.466 59.0995 210.986 70.6401 208.496Z" fill="#9D9D9D"/>
<path d="M34.7463 227.474C46.2868 224.984 54.6605 218.427 53.4494 212.829C52.2384 207.23 41.9011 204.711 30.3605 207.201C18.82 209.691 10.4463 216.248 11.6574 221.847C12.8685 227.445 23.2057 229.965 34.7463 227.474Z" fill="#9D9D9D"/>
<path d="M335.189 217.42H332.746V224.74H335.189V217.42Z" fill="white"/>
<path d="M335.189 380.715H332.746V365.117H335.189V380.715ZM335.189 349.52H332.746V333.923H335.189V349.52ZM335.189 318.325H332.746V302.728H335.189V318.325ZM335.189 287.131H332.746V271.533H335.189V287.131ZM335.189 255.936H332.746V240.339H335.189V255.936Z" fill="white"/>
<path d="M335.189 396.312H332.746V403.632H335.189V396.312Z" fill="white"/>
<path d="M602.724 217.42H600.281V224.74H602.724V217.42Z" fill="white"/>
<path d="M602.724 380.715H600.281V365.117H602.724V380.715ZM602.724 349.52H600.281V333.923H602.724V349.52ZM602.724 318.325H600.281V302.728H602.724V318.325ZM602.724 287.131H600.281V271.533H602.724V287.131ZM602.724 255.936H600.281V240.339H602.724V255.936Z" fill="white"/>
<path d="M602.724 396.312H600.281V403.632H602.724V396.312Z" fill="white"/>
<path d="M737.677 74.2148H735.234V81.5353H737.677V74.2148Z" fill="white"/>
<path d="M737.677 381.321H735.234V366.331H737.677V381.321ZM737.677 351.342H735.234V336.352H737.677V351.342ZM737.677 321.363H735.234V306.374H737.677V321.363ZM737.677 291.384H735.234V276.395H737.677V291.384ZM737.677 261.406H735.234V246.416H737.677V261.406ZM737.677 231.427H735.234V216.437H737.677V231.427ZM737.677 201.448H735.234V186.459H737.677V201.448ZM737.677 171.469H735.234V156.48H737.677V171.469ZM737.677 141.49H735.234V126.501H737.677V141.49ZM737.677 111.512H735.234V96.5225H737.677V111.512Z" fill="white"/>
<path d="M737.677 396.312H735.234V403.632H737.677V396.312Z" fill="white"/>
<path d="M871.286 15.6509H868.843V22.9713H871.286V15.6509Z" fill="white"/>
<path d="M871.286 381.377H868.843V366.443H871.286V381.377ZM871.286 351.509H868.843V336.575H871.286V351.509ZM871.286 321.642H868.843V306.708H871.286V321.642ZM871.286 291.775H868.843V276.841H871.286V291.775ZM871.286 261.908H868.843V246.974H871.286V261.908ZM871.286 232.041H868.843V217.107H871.286V232.041ZM871.286 202.173H868.843V187.24H871.286V202.173ZM871.286 172.306H868.843V157.372H871.286V172.306ZM871.286 142.439H868.843V127.505H871.286V142.439ZM871.286 112.572H868.843V97.6381H871.286V112.572ZM871.286 82.7046H868.843V67.771H871.286V82.7046ZM871.286 52.8374H868.843V37.9038H871.286V52.8374Z" fill="white"/>
<path d="M871.286 396.312H868.843V403.632H871.286V396.312Z" fill="white"/>
<path d="M469.568 119.357H467.124V126.677H469.568V119.357Z" fill="white"/>
<path d="M469.571 382.12H467.128V367.929H469.571V382.12ZM469.571 353.737H467.128V339.546H469.571V353.737ZM469.571 325.355H467.128V311.164H469.571V325.355ZM469.571 296.972H467.128V282.781H469.571V296.972ZM469.571 268.59H467.128V254.399H469.571V268.59ZM469.571 240.207H467.128V226.016H469.571V240.207ZM469.571 211.824H467.128V197.633H469.571V211.824ZM469.571 183.442H467.128V169.251H469.571V183.442ZM469.571 155.059H467.128V140.868H469.571V155.059Z" fill="white"/>
<path d="M469.568 396.312H467.124V403.632H469.568V396.312Z" fill="white"/>
<path d="M602.616 220.819L468.135 120.218L335.491 219.444L332.456 215.397L468.135 113.899L601.976 214.022L734.978 68.6582L735.512 68.4422L869.673 14.4556L871.565 19.1467L737.938 72.9174L602.616 220.819Z" fill="#3F3D56"/>
<path d="M333.968 232.588C342.356 232.588 349.156 225.797 349.156 217.419C349.156 209.042 342.356 202.251 333.968 202.251C325.58 202.251 318.78 209.042 318.78 217.419C318.78 225.797 325.58 232.588 333.968 232.588Z" fill="#117B75"/>
<path d="M468.132 133.992C476.52 133.992 483.32 127.201 483.32 118.823C483.32 110.446 476.52 103.654 468.132 103.654C459.744 103.654 452.944 110.446 452.944 118.823C452.944 127.201 459.744 133.992 468.132 133.992Z" fill="#117B75"/>
<path d="M602.292 232.588C610.681 232.588 617.481 225.797 617.481 217.419C617.481 209.042 610.681 202.251 602.292 202.251C593.904 202.251 587.104 209.042 587.104 217.419C587.104 225.797 593.904 232.588 602.292 232.588Z" fill="#9D9D9D"/>
<path d="M598.629 286.271C607.017 286.271 613.817 279.48 613.817 271.102C613.817 262.725 607.017 255.934 598.629 255.934C590.241 255.934 583.441 262.725 583.441 271.102C583.441 279.48 590.241 286.271 598.629 286.271Z" fill="#117B75"/>
<path d="M736.453 85.9566C744.841 85.9566 751.641 79.1653 751.641 70.7877C751.641 62.4102 744.841 55.6189 736.453 55.6189C728.065 55.6189 721.265 62.4102 721.265 70.7877C721.265 79.1653 728.065 85.9566 736.453 85.9566Z" fill="#117B75"/>
<path d="M870.617 30.3377C879.005 30.3377 885.805 23.5464 885.805 15.1689C885.805 6.79133 879.005 0 870.617 0C862.229 0 855.429 6.79133 855.429 15.1689C855.429 23.5464 862.229 30.3377 870.617 30.3377Z" fill="#117B75"/>
<path d="M193.726 296.84C198.913 283.286 199.664 270.98 195.404 269.354C191.143 267.728 183.485 277.397 178.298 290.95C173.111 304.504 172.36 316.81 176.62 318.436C180.88 320.062 188.539 310.393 193.726 296.84Z" fill="#2F2E41"/>
<path d="M137.384 386.119C166.44 386.119 189.995 362.594 189.995 333.574C189.995 304.555 166.44 281.03 137.384 281.03C108.327 281.03 84.7722 304.555 84.7722 333.574C84.7722 362.594 108.327 386.119 137.384 386.119Z" fill="#2F2E41"/>
<path d="M129.392 374.813H113.409V403.413H129.392V374.813Z" fill="#2F2E41"/>
<path d="M161.359 374.813H145.375V403.413H161.359V374.813Z" fill="#2F2E41"/>
<path d="M126.728 408.734C134.084 408.734 140.048 406.501 140.048 403.746C140.048 400.991 134.084 398.757 126.728 398.757C119.372 398.757 113.409 400.991 113.409 403.746C113.409 406.501 119.372 408.734 126.728 408.734Z" fill="#2F2E41"/>
<path d="M158.695 408.068C166.051 408.068 172.014 405.835 172.014 403.08C172.014 400.325 166.051 398.091 158.695 398.091C151.339 398.091 145.375 400.325 145.375 403.08C145.375 405.835 151.339 408.068 158.695 408.068Z" fill="#2F2E41"/>
<path d="M138.711 338.23C148.642 338.23 156.692 330.19 156.692 320.272C156.692 310.354 148.642 302.313 138.711 302.313C128.781 302.313 120.73 310.354 120.73 320.272C120.73 330.19 128.781 338.23 138.711 338.23Z" fill="#9D9D9D"/>
<path d="M138.716 326.259C142.026 326.259 144.71 323.578 144.71 320.272C144.71 316.966 142.026 314.286 138.716 314.286C135.406 314.286 132.722 316.966 132.722 320.272C132.722 323.578 135.406 326.259 138.716 326.259Z" fill="#3F3D56"/>
<path d="M86.3439 284.71C82.0957 265.709 95.6754 246.509 116.675 241.826C137.674 237.143 158.141 248.75 162.39 267.751C166.638 286.752 152.721 293.76 131.721 298.443C110.722 303.126 90.592 303.711 86.3439 284.71Z" fill="#9D9D9D"/>
<path d="M101.892 320.452C103.846 316.337 94.7893 307.96 81.6626 301.742C68.5358 295.524 56.3101 293.82 54.3556 297.935C52.4012 302.051 61.4581 310.428 74.5848 316.646C87.7115 322.864 99.9372 324.568 101.892 320.452Z" fill="#2F2E41"/>
<path d="M111.543 352.53C111.543 357.673 124.801 367.828 139.513 367.828C154.226 367.828 168.02 353.35 168.02 348.207C168.02 343.064 154.225 349.205 139.513 349.205C124.801 349.205 111.543 347.388 111.543 352.53Z" fill="#9D9D9D"/>
<path d="M534.568 377.758C563.625 377.758 587.18 354.233 587.18 325.214C587.18 296.194 563.625 272.669 534.568 272.669C505.512 272.669 481.957 296.194 481.957 325.214C481.957 354.233 505.512 377.758 534.568 377.758Z" fill="#2F2E41"/>
<path d="M526.569 366.45H510.586V395.05H526.569V366.45Z" fill="#2F2E41"/>
<path d="M558.538 366.45H542.554V395.051H558.538V366.45Z" fill="#2F2E41"/>
<path d="M534.826 404.527C535.963 402.016 531.451 397.527 524.748 394.5C518.046 391.472 511.691 391.053 510.554 393.563C509.417 396.073 513.929 400.563 520.632 403.59C527.334 406.618 533.689 407.037 534.826 404.527Z" fill="#2F2E41"/>
<path d="M565.414 402.969C566.619 400.49 562.231 395.88 555.614 392.671C548.997 389.462 542.656 388.87 541.451 391.348C540.246 393.827 544.634 398.437 551.251 401.646C557.868 404.855 564.21 405.447 565.414 402.969Z" fill="#2F2E41"/>
<path d="M483.531 276.346C479.283 257.345 492.863 238.146 513.862 233.463C534.862 228.78 555.329 240.387 559.577 259.388C563.825 278.389 549.908 285.397 528.909 290.08C507.909 294.763 487.78 295.348 483.531 276.346Z" fill="#117B75"/>
<path d="M591.258 302.252C602.652 290.863 608.987 278.735 605.407 275.163C601.828 271.59 589.689 277.927 578.295 289.315C566.901 300.703 560.567 312.831 564.146 316.404C567.726 319.976 579.864 313.64 591.258 302.252Z" fill="#2F2E41"/>
<path d="M491.383 346.933C495.518 331.372 494.905 317.707 490.013 316.411C485.122 315.114 477.805 326.678 473.67 342.238C469.535 357.799 470.148 371.464 475.039 372.76C479.931 374.057 487.248 362.494 491.383 346.933Z" fill="#2F2E41"/>
</svg>
