<svg width="1200" height="896" viewBox="0 0 1200 896" fill="none" xmlns="http://www.w3.org/2000/svg">
<rect width="1200" height="896" fill="#131217"/>
<path d="M326.815 404.543L326.035 438.779L360.244 439.304L360.891 405.567L326.815 404.543Z" fill="#FFD15C"/>
<path d="M360.244 439.304L360.103 472.847L392.624 473.346L393.155 439.808L360.244 439.304Z" fill="#FFD770"/>
<path d="M326.035 438.779L325.504 472.316L360.103 472.847L360.244 439.304L326.035 438.779Z" fill="#F5AF00"/>
<path d="M326.035 438.779L287.566 443.793L287.035 480.977C287.035 480.977 289.058 471.761 299.173 470.637L325.504 472.316L326.035 438.779Z" fill="#111217"/>
<path d="M326.815 404.543L287.566 443.793L326.035 438.779L326.815 404.543Z" fill="#F5AF00"/>
<path d="M360.103 472.847L325.504 472.316L325.92 497.383C326.144 507.947 315.355 509.297 315.355 509.297L355.955 510.014L360.103 472.847Z" fill="#111217"/>
<path d="M325.504 472.316L299.173 470.637C289.058 471.761 287.035 480.977 287.035 480.977L286.133 508.847L315.355 509.297C315.355 509.297 326.144 507.947 325.92 497.383L325.504 472.316Z" fill="#E2193E"/>
<path d="M392.624 473.346L360.103 472.847L355.955 510.014L392.624 473.346Z" fill="#F5AF00"/>
<path d="M309.534 370.408C300.157 371.221 288.782 380.842 288.595 390.461L287.566 443.793L326.815 404.543L360.891 405.567L395.031 370.936L309.534 370.408Z" fill="#111217"/>
<path d="M428.757 405.747L429.314 370.6L395.031 370.936L393.703 405.209L428.757 405.747Z" fill="#FFB800"/>
<path d="M393.703 405.209L393.155 439.808L428.757 405.747L393.703 405.209Z" fill="#FFCB47"/>
<path d="M360.891 405.567L393.703 405.209L395.031 370.936L360.891 405.567Z" fill="#FFCB47"/>
<path d="M360.891 405.567L360.244 439.304L393.155 439.808L393.703 405.209L360.891 405.567Z" fill="#FFE299"/>
<path d="M427.429 489.645C427.613 480.078 428.757 405.747 428.757 405.747L393.155 439.808L392.624 473.346L355.955 510.014C355.955 510.014 397.331 510.52 406.817 510.698C416.304 510.876 427.244 499.213 427.429 489.645Z" fill="#111217"/>
<path d="M524.783 427.576C524.56 422.906 524.226 417.346 519.327 411.341C513.983 405.002 505.188 402 497.06 402C483.255 402 468.225 410.785 468.225 426.242C468.225 441.699 482.587 447.481 488.376 449.816C501.068 455.154 504.52 456.488 504.52 461.937C504.52 465.718 501.514 469.832 496.504 469.832C493.832 469.832 487.931 468.164 487.931 458.601H467V461.27C467 471.834 472.901 487.402 496.726 487.402C518.548 487.402 525.451 474.169 525.451 462.16C525.451 452.596 521.554 445.479 506.19 438.585C491.382 431.913 489.156 430.912 489.156 426.019C489.156 422.127 492.718 419.57 496.392 419.57C502.85 419.57 503.518 424.796 503.963 427.576H524.783Z" fill="white"/>
<path d="M556.874 403.557H538.393V424.129H529.263V438.14H538.393V485.845H556.874V438.14H565.781V424.129H556.874V403.557Z" fill="white"/>
<path d="M573.64 485.845H592.121V451.929C592.121 442.588 598.133 440.809 606.706 440.587V422.016C596.018 422.016 592.789 427.687 591.23 430.69H591.008V424.129H573.64V485.845Z" fill="white"/>
<path d="M634.853 424.129H616.371V485.845H634.853V424.129ZM634.853 403.557H616.371V417.568H634.853V403.557Z" fill="white"/>
<path d="M648.896 485.845H667.377V456.155H667.6L685.08 485.845H706.01L683.41 451.262L706.679 424.129H684.746L667.6 446.48H667.377V403.557H648.896V485.845Z" fill="white"/>
<path d="M750.73 466.496C748.169 469.721 745.163 472.279 739.485 472.279C732.248 472.279 726.125 467.942 725.011 460.603H771.327C771.549 459.157 771.772 458.156 771.772 455.71C771.772 436.917 757.966 422.016 739.151 422.016C720.335 422.016 706.752 437.918 706.752 455.154C706.752 473.502 721.783 487.847 739.485 487.847C745.831 487.847 751.954 485.956 757.076 482.287C762.308 478.728 766.651 473.391 769.657 466.496H750.73ZM725.234 448.148C726.013 444.479 729.687 437.584 739.262 437.584C748.837 437.584 752.511 444.479 753.29 448.148H725.234Z" fill="white"/>
<path d="M846.42 403.557H827.939V429.355C825.935 427.354 820.702 422.016 809.791 422.016C794.093 422.016 779.174 433.915 779.174 454.82C779.174 473.391 791.421 487.847 810.125 487.847C822.594 487.847 827.048 481.731 828.607 479.173H828.829V485.845H846.42V403.557ZM797.656 454.709C797.656 447.592 802.666 439.252 813.354 439.252C823.597 439.252 828.941 447.259 828.941 454.709C828.941 461.159 824.71 470.611 813.131 470.611C804.447 470.611 797.656 464.272 797.656 454.709Z" fill="white"/>
<path d="M871.114 475.436V488.594H874.392V483.529H875.691C877.763 483.529 877.949 484.702 878.042 485.444C878.104 485.876 878.227 488.131 878.475 488.594H881.66C881.413 487.915 881.413 487.668 881.258 485.382C881.134 483.374 880.33 482.725 879.372 482.324C881.134 481.521 881.505 480.223 881.505 479.142C881.505 476.486 879.217 475.436 876.681 475.436H871.114ZM876.155 477.691C876.836 477.691 878.227 477.721 878.227 479.389C878.227 481.397 876.65 481.397 875.97 481.397H874.392V477.691H876.155ZM876.248 470.277C869.475 470.277 864.341 475.775 864.341 482.139C864.341 488.656 869.661 494 876.186 494C882.681 494 888 488.687 888 482.139C888 475.745 882.804 470.277 876.248 470.277ZM876.217 472.656C881.444 472.656 885.433 477.042 885.433 482.139C885.433 487.452 881.258 491.622 876.186 491.622C871.114 491.622 866.908 487.39 866.908 482.139C866.908 476.949 870.96 472.656 876.217 472.656Z" fill="white"/>
</svg>
