<svg width="657" height="216" viewBox="0 0 657 216" fill="none" xmlns="http://www.w3.org/2000/svg">
<g clip-path="url(#clip0_402_9)">
<rect width="657" height="216" fill="#111217"/>
<path d="M79.8149 76.5433L79.0352 110.779L113.244 111.304L113.891 77.5673L79.8149 76.5433Z" fill="#FFD15C"/>
<path d="M113.244 111.304L113.103 144.847L145.624 145.346L146.155 111.808L113.244 111.304Z" fill="#FFD770"/>
<path d="M79.0352 110.779L78.504 144.316L113.103 144.847L113.244 111.304L79.0352 110.779Z" fill="#F5AF00"/>
<path d="M79.0352 110.779L40.5655 115.793L40.035 152.977C40.035 152.977 42.0584 143.761 52.1732 142.637L78.504 144.316L79.0352 110.779Z" fill="#111217"/>
<path d="M79.8149 76.5433L40.5655 115.793L79.0352 110.779L79.8149 76.5433Z" fill="#F5AF00"/>
<path d="M113.103 144.847L78.504 144.316L78.9195 169.383C79.1437 179.947 68.3546 181.297 68.3546 181.297L108.955 182.014L113.103 144.847Z" fill="#111217"/>
<path d="M78.504 144.316L52.1732 142.637C42.0584 143.761 40.035 152.977 40.035 152.977L39.1329 180.847L68.3546 181.297C68.3546 181.297 79.1437 179.947 78.9195 169.383L78.504 144.316Z" fill="#E2193E"/>
<path d="M145.624 145.346L113.103 144.847L108.955 182.014L145.624 145.346Z" fill="#F5AF00"/>
<path d="M62.5336 42.4081C53.1572 43.2209 41.7818 52.8416 41.5955 62.461L40.5655 115.793L79.8149 76.5433L113.891 77.5673L148.031 42.9359L62.5336 42.4081Z" fill="#111217"/>
<path d="M181.757 77.7465L182.314 42.6L148.031 42.9359L146.703 77.2089L181.757 77.7465Z" fill="#FFB800"/>
<path d="M146.703 77.2089L146.155 111.808L181.757 77.7465L146.703 77.2089Z" fill="#FFCB47"/>
<path d="M113.891 77.5673L146.703 77.2089L148.031 42.9359L113.891 77.5673Z" fill="#FFCB47"/>
<path d="M113.891 77.5673L113.244 111.304L146.155 111.808L146.703 77.2089L113.891 77.5673Z" fill="#FFE299"/>
<path d="M180.429 161.645C180.613 152.078 181.757 77.7465 181.757 77.7465L146.155 111.808L145.624 145.346L108.955 182.014C108.955 182.014 150.331 182.52 159.817 182.698C169.304 182.876 180.244 171.213 180.429 161.645Z" fill="#111217"/>
<path d="M277.783 99.5761C277.56 94.9057 277.226 89.3457 272.327 83.3409C266.983 77.0024 258.188 74 250.06 74C236.255 74 221.225 82.7848 221.225 98.2417C221.225 113.699 235.587 119.481 241.376 121.816C254.068 127.154 257.52 128.488 257.52 133.937C257.52 137.718 254.514 141.832 249.504 141.832C246.832 141.832 240.931 140.164 240.931 130.601H220V133.27C220 143.834 225.901 159.402 249.726 159.402C271.548 159.402 278.451 146.169 278.451 134.16C278.451 124.596 274.554 117.479 259.19 110.585C244.382 103.913 242.155 102.912 242.155 98.0193C242.155 94.1273 245.718 91.5697 249.392 91.5697C255.85 91.5697 256.518 96.7961 256.963 99.5761H277.783Z" fill="white"/>
<path d="M309.874 75.5568H291.392V96.1289H282.263V110.14H291.392V157.845H309.874V110.14H318.781V96.1289H309.874V75.5568Z" fill="white"/>
<path d="M326.639 157.845H345.121V123.929C345.121 114.588 351.133 112.809 359.706 112.587V94.0161C349.018 94.0161 345.789 99.6873 344.23 102.69H344.008V96.1289H326.639V157.845Z" fill="white"/>
<path d="M387.853 96.1289H369.371V157.845H387.853V96.1289ZM387.853 75.5568H369.371V89.5681H387.853V75.5568Z" fill="white"/>
<path d="M401.896 157.845H420.377V128.155H420.6L438.079 157.845H459.01L436.409 123.262L459.678 96.1289H437.745L420.6 118.48H420.377V75.5568H401.896V157.845Z" fill="white"/>
<path d="M503.73 138.496C501.169 141.721 498.163 144.279 492.485 144.279C485.248 144.279 479.125 139.942 478.011 132.603H524.326C524.549 131.157 524.772 130.156 524.772 127.71C524.772 108.917 510.966 94.0161 492.151 94.0161C473.335 94.0161 459.752 109.918 459.752 127.154C459.752 145.502 474.783 159.847 492.485 159.847C498.831 159.847 504.954 157.956 510.076 154.287C515.308 150.728 519.65 145.391 522.656 138.496H503.73ZM478.234 120.148C479.013 116.479 482.687 109.584 492.262 109.584C501.837 109.584 505.511 116.479 506.29 120.148H478.234Z" fill="white"/>
<path d="M599.42 75.5568H580.938V101.355C578.934 99.3537 573.702 94.0161 562.791 94.0161C547.093 94.0161 532.174 105.915 532.174 126.82C532.174 145.391 544.421 159.847 563.125 159.847C575.594 159.847 580.048 153.731 581.606 151.173H581.829V157.845H599.42V75.5568ZM550.655 126.709C550.655 119.592 555.665 111.252 566.354 111.252C576.596 111.252 581.94 119.259 581.94 126.709C581.94 133.159 577.71 142.611 566.131 142.611C557.447 142.611 550.655 136.272 550.655 126.709Z" fill="white"/>
<path d="M624.114 147.436V160.594H627.392V155.529H628.691C630.763 155.529 630.949 156.702 631.042 157.444C631.103 157.876 631.227 160.131 631.475 160.594H634.66C634.413 159.915 634.413 159.668 634.258 157.382C634.134 155.374 633.33 154.725 632.371 154.324C634.134 153.521 634.505 152.223 634.505 151.142C634.505 148.486 632.217 147.436 629.681 147.436H624.114ZM629.155 149.691C629.835 149.691 631.227 149.721 631.227 151.389C631.227 153.397 629.65 153.397 628.97 153.397H627.392V149.691H629.155ZM629.248 142.277C622.475 142.277 617.341 147.775 617.341 154.139C617.341 160.656 622.661 166 629.186 166C635.681 166 641 160.687 641 154.139C641 147.745 635.804 142.277 629.248 142.277ZM629.217 144.656C634.443 144.656 638.433 149.042 638.433 154.139C638.433 159.452 634.258 163.622 629.186 163.622C624.114 163.622 619.908 159.39 619.908 154.139C619.908 148.949 623.959 144.656 629.217 144.656Z" fill="white"/>
</g>
<defs>
<clipPath id="clip0_402_9">
<rect width="657" height="216" fill="white"/>
</clipPath>
</defs>
</svg>
