<svg width="210" height="54" viewBox="0 0 210 54" fill="none" xmlns="http://www.w3.org/2000/svg">
<rect width="53.0654" height="53.0351" fill="#F9CB44"/>
<path d="M25.5535 25.1598V19.3196H27.8909V25.1598H33.7344V27.4959H27.8909V33.3361H25.5535V27.4959H19.71V25.1598H25.5535Z" fill="#141824"/>
<path d="M22.0474 9.97536V5.30322H5.68555V21.6557H10.3604V9.97536H22.0474Z" fill="#141824"/>
<path d="M43.084 21.6557H47.7588V5.30322H31.397V9.97536H43.084V21.6557Z" fill="#141824"/>
<path d="M31.397 42.6803V47.3525H47.7588V31H43.084V42.6803H31.397Z" fill="#141824"/>
<path d="M10.3604 31H5.68555V47.3525H22.0474V42.6803H10.3604V31Z" fill="#141824"/>
<path d="M84.7533 40.0176C83.4625 40.0176 82.3528 39.55 81.4242 38.615C80.5184 37.6565 80.0654 36.5111 80.0654 35.1786V34.4072H84.5156V34.6176C84.5156 34.9916 84.5495 35.2254 84.6175 35.3189C84.7081 35.389 84.9345 35.4241 85.2969 35.4241H94.8426C95.1823 35.4241 95.3974 35.389 95.488 35.3189C95.5786 35.2254 95.6239 34.9916 95.6239 34.6176V32.9695C95.6239 32.5955 95.5786 32.3734 95.488 32.3033C95.3974 32.2098 95.1823 32.163 94.8426 32.163H84.7533C83.4625 32.163 82.3528 31.6838 81.4242 30.7254C80.5184 29.7669 80.0654 28.6332 80.0654 27.3241V24.5189C80.0654 23.1864 80.5184 22.0526 81.4242 21.1176C82.3528 20.1591 83.4625 19.6799 84.7533 19.6799H95.3861C96.677 19.6799 97.7867 20.1591 98.7152 21.1176C99.6437 22.0526 100.108 23.1864 100.108 24.5189V25.2903H95.6239V25.0799C95.6239 24.7059 95.5786 24.4838 95.488 24.4137C95.3974 24.3202 95.1823 24.2734 94.8426 24.2734H85.2969C84.9345 24.2734 84.7081 24.3202 84.6175 24.4137C84.5495 24.4838 84.5156 24.7059 84.5156 25.0799V26.728C84.5156 27.102 84.5495 27.3358 84.6175 27.4293C84.7081 27.4994 84.9345 27.5345 85.2969 27.5345H95.3861C96.677 27.5345 97.7867 28.0137 98.7152 28.9721C99.6437 29.9306 100.108 31.0643 100.108 32.3734V35.1786C100.108 36.5111 99.6437 37.6565 98.7152 38.615C97.7867 39.55 96.677 40.0176 95.3861 40.0176H84.7533Z" fill="white"/>
<path d="M108.212 40.0176C106.921 40.0176 105.811 39.55 104.882 38.615C103.977 37.6565 103.524 36.5111 103.524 35.1786V13.4384H107.974V19.6799H115.651V24.2734H107.974V34.1968C107.974 34.8513 108.008 35.2254 108.076 35.3189C108.166 35.389 108.529 35.4241 109.163 35.4241H115.651V40.0176H108.212Z" fill="white"/>
<path d="M118.617 40.0176V24.5189C118.617 23.1864 119.07 22.0526 119.976 21.1176C120.904 20.1591 122.014 19.6799 123.305 19.6799H134.243V24.2734H124.256C123.622 24.2734 123.26 24.3202 123.169 24.4137C123.101 24.4838 123.067 24.8461 123.067 25.5007V40.0176H118.617Z" fill="white"/>
<path d="M136.83 40.0176V19.6799H141.28V40.0176H136.83ZM136.83 17.6461V13.0176H141.28V17.6461H136.83Z" fill="white"/>
<path d="M144.66 40.0176V13.0176H149.111V27.5345H152.61L159.641 19.6799H164.397V20.9423L156.55 29.8487L164.363 38.7552V40.0176H159.641L152.61 32.163H149.111V40.0176H144.66Z" fill="white"/>
<path d="M171.141 40.0176C169.851 40.0176 168.741 39.55 167.812 38.615C166.906 37.6565 166.454 36.5111 166.454 35.1786V24.5189C166.454 23.1864 166.906 22.0526 167.812 21.1176C168.741 20.1591 169.851 19.6799 171.141 19.6799H181.774C183.065 19.6799 184.163 20.1591 185.069 21.1176C185.998 22.0526 186.462 23.1864 186.462 24.5189V32.163H170.904V34.1968C170.904 34.8513 170.938 35.2254 171.006 35.3189C171.096 35.389 171.458 35.4241 172.093 35.4241H186.462V40.0176H171.141ZM170.904 28.0254H182.012V25.5007C182.012 24.8461 181.967 24.4838 181.876 24.4137C181.808 24.3202 181.457 24.2734 180.823 24.2734H172.093C171.458 24.2734 171.096 24.3202 171.006 24.4137C170.938 24.4838 170.904 24.8461 170.904 25.5007V28.0254Z" fill="white"/>
<path d="M193.711 40.0176C192.42 40.0176 191.31 39.55 190.382 38.615C189.476 37.6565 189.023 36.5111 189.023 35.1786V24.5189C189.023 23.1864 189.476 22.0526 190.382 21.1176C191.31 20.1591 192.42 19.6799 193.711 19.6799H204.615V13.0176H209.065V40.0176H193.711ZM194.696 35.4241H203.426C204.038 35.4241 204.389 35.389 204.479 35.3189C204.57 35.2254 204.615 34.8513 204.615 34.1968V25.5007C204.615 24.8461 204.57 24.4838 204.479 24.4137C204.389 24.3202 204.038 24.2734 203.426 24.2734H194.696C194.062 24.2734 193.699 24.3202 193.609 24.4137C193.541 24.4838 193.507 24.8461 193.507 25.5007V34.1968C193.507 34.8513 193.541 35.2254 193.609 35.3189C193.699 35.389 194.062 35.4241 194.696 35.4241Z" fill="white"/>
</svg>
