<svg width="900" height="900" viewBox="0 0 900 900" fill="none" xmlns="http://www.w3.org/2000/svg">
<rect width="900" height="900" fill="#1B1C23"/>
<g clip-path="url(#clip0_131_39)">
<rect x="129" y="129" width="642" height="642" rx="50" fill="#1B1C23"/>
<path d="M351.183 338.916L351.177 448.815L459.011 446.162L459.011 338.916L351.183 338.916Z" fill="#FFD15C"/>
<path d="M459.011 446.162L459.011 553.759C459.011 553.759 528.441 552.222 570.043 551.237C570.043 509.205 570.043 485.64 570.043 443.608C528.442 444.605 459.011 446.162 459.011 446.162Z" fill="#FFD770"/>
<path d="M351.177 448.815L351.177 553.759L459.011 553.759L459.011 446.162L351.177 448.815Z" fill="#F5AF00"/>
<path d="M351.177 448.815L224.737 448.815L219.399 589.098C219.399 589.098 226.401 559.284 258.884 554.396L351.177 553.759L351.177 448.815Z" fill="#1B1C23"/>
<path d="M351.183 338.916L224.737 448.815L351.177 448.815L351.183 338.916Z" fill="#F5AF00"/>
<path d="M459.011 553.759L351.177 553.759L351.177 636.786C351.304 670.639 308.582 676.334 308.582 676.334L457.884 674.137L459.011 553.759Z" fill="#1B1C23"/>
<path d="M351.177 553.759L258.884 554.396C226.401 559.284 219.399 589.098 219.399 589.098L219.399 676.335L308.582 676.334C308.582 676.334 351.304 670.639 351.177 636.786L351.177 553.759Z" fill="#E2193E"/>
<path d="M570.043 551.237C528.441 552.222 459.011 553.759 459.011 553.759L457.884 674.137C457.884 674.137 528.002 599.232 570.043 551.237Z" fill="#F5AF00"/>
<path d="M297.706 231.628C267.608 235.424 230.608 267.721 229.472 298.596L224.737 448.815L351.183 338.916L459.011 338.916L570.043 229.241L297.706 231.628Z" fill="#1B1C23"/>
<path d="M671.154 338.916L671.154 229.241L570.043 229.241C570.043 229.241 570.041 293.45 570.04 338.923C610.407 338.92 671.154 338.916 671.154 338.916Z" fill="#FFB800"/>
<path d="M570.04 338.923C570.041 379.805 570.042 402.726 570.043 443.608C610.409 402.723 671.154 338.916 671.154 338.916C671.154 338.916 610.407 338.92 570.04 338.923Z" fill="#FFCB47"/>
<path d="M459.011 338.916C459.011 338.916 528.44 338.92 570.04 338.923C570.041 293.45 570.043 229.241 570.043 229.241L459.011 338.916Z" fill="#FFCB47"/>
<path d="M459.011 338.916L459.011 446.162C459.011 446.162 528.442 444.605 570.043 443.608C570.042 402.726 570.041 379.805 570.04 338.923C528.44 338.92 459.011 338.916 459.011 338.916Z" fill="#FFE299"/>
<path d="M668.901 599.102C670.029 568.393 671.154 338.916 671.154 338.916C671.154 338.916 610.409 402.723 570.043 443.608C570.043 485.64 570.043 509.205 570.043 551.237C528.002 599.232 457.884 674.137 457.884 674.137C457.884 674.137 571.264 669.865 601.659 669.235C632.054 668.604 667.774 629.81 668.901 599.102Z" fill="#1B1C23"/>
</g>
<defs>
<clipPath id="clip0_131_39">
<rect x="129" y="129" width="642" height="642" rx="50" fill="white"/>
</clipPath>
</defs>
</svg>
